<svg xmlns="http://www.w3.org/2000/svg" viewBox="0 0 1024 1024"><path d="M510.771 91.494c-235.008 0-425.677 190.771-425.677 425.574 0 235.008 190.771 425.677 425.677 425.677s425.574-190.771 425.574-425.677c0-234.906-190.771-425.574-425.574-425.574zm0 127.693c70.656 0 127.59 57.037 127.59 127.693s-56.934 127.693-127.59 127.693-127.795-57.037-127.795-127.693 57.139-127.693 127.795-127.693zm0 604.365c-106.496 0-200.499-54.477-255.386-137.011 1.229-84.685 170.189-131.072 255.386-131.072 84.685 0 254.054 46.387 255.283 131.072-54.886 82.534-148.89 137.011-255.283 137.011z"/></svg>